<svg id="Layer_1" data-name="Layer 1" xmlns="http://www.w3.org/2000/svg" xmlns:xlink="http://www.w3.org/1999/xlink" viewBox="0 0 190.59 78.01"><defs><style>.cls-1{fill:#00aae7;}.cls-2{fill:#2cb34a;}.cls-3{fill:url(#linear-gradient);}.cls-4{fill:url(#linear-gradient-2);}.cls-5{fill:url(#linear-gradient-3);}.cls-6{fill:url(#linear-gradient-4);}.cls-7{fill:url(#linear-gradient-5);}.cls-8{fill:url(#linear-gradient-6);}.cls-9{fill:url(#linear-gradient-7);}.cls-10{fill:url(#linear-gradient-8);}.cls-11{fill:#1c2b39;}.cls-12{fill:#1ca8e0;}</style><linearGradient id="linear-gradient" x1="158.01" y1="71.36" x2="156.57" y2="59.12" gradientTransform="matrix(1, 0, 0, -1, 0, 82)" gradientUnits="userSpaceOnUse"><stop offset="0" stop-color="#00aae7"/><stop offset="1" stop-color="#2b398b"/></linearGradient><linearGradient id="linear-gradient-2" x1="144.51" y1="69.65" x2="166.27" y2="61.69" gradientTransform="matrix(1, 0, 0, -1, 0, 82)" gradientUnits="userSpaceOnUse"><stop offset="0.18" stop-color="#00aae7"/><stop offset="0.7" stop-color="#0093d5"/></linearGradient><linearGradient id="linear-gradient-3" x1="153.16" y1="66.73" x2="160.79" y2="50.45" gradientTransform="matrix(1, 0, 0, -1, 0, 82)" gradientUnits="userSpaceOnUse"><stop offset="0.09" stop-color="#00aae7"/><stop offset="0.21" stop-color="#0298d9"/><stop offset="0.53" stop-color="#0670b7"/><stop offset="0.78" stop-color="#0957a3"/><stop offset="0.94" stop-color="#0a4e9b"/></linearGradient><linearGradient id="linear-gradient-4" x1="153.73" y1="61.06" x2="160.93" y2="58.42" gradientTransform="matrix(1, 0, 0, -1, 0, 82)" gradientUnits="userSpaceOnUse"><stop offset="0" stop-color="#00aae7"/><stop offset="1" stop-color="#5bcbf5"/></linearGradient><linearGradient id="linear-gradient-5" x1="173.51" y1="57.12" x2="172.54" y2="69.44" gradientTransform="matrix(1, 0, 0, -1, 0, 82)" gradientUnits="userSpaceOnUse"><stop offset="0" stop-color="#2cb34a"/><stop offset="1" stop-color="#005234"/></linearGradient><linearGradient id="linear-gradient-6" x1="190.7" y1="62.45" x2="172.55" y2="78.68" gradientTransform="matrix(1, 0, 0, -1, 0, 82)" gradientUnits="userSpaceOnUse"><stop offset="0" stop-color="#2cb34a"/><stop offset="0.3" stop-color="#29b14a"/><stop offset="0.54" stop-color="#1faa4a"/><stop offset="0.77" stop-color="#0e9e4a"/><stop offset="0.9" stop-color="#009449"/></linearGradient><linearGradient id="linear-gradient-7" x1="181.36" y1="65.07" x2="171.03" y2="74.29" gradientTransform="matrix(1, 0, 0, -1, 0, 82)" gradientUnits="userSpaceOnUse"><stop offset="0" stop-color="#2cb34a"/><stop offset="0.04" stop-color="#29af4a"/><stop offset="0.36" stop-color="#138e46"/><stop offset="0.62" stop-color="#057943"/><stop offset="0.8" stop-color="#007242"/></linearGradient><linearGradient id="linear-gradient-8" x1="173.41" y1="69.52" x2="186.55" y2="82.1" gradientTransform="matrix(1, 0, 0, -1, 0, 82)" gradientUnits="userSpaceOnUse"><stop offset="0.5" stop-color="#2cb34a"/><stop offset="0.64" stop-color="#2ab04a"/><stop offset="0.76" stop-color="#23a649"/><stop offset="0.86" stop-color="#189547"/><stop offset="0.96" stop-color="#087e44"/><stop offset="1" stop-color="#007242"/></linearGradient></defs><path class="cls-1" d="M163.1,28.2c-32.2-6.1-16.4-34.5,1.6-17.1.3.2,0,.7-.3.5a13.8,13.8,0,0,0-5.1-1.1c-8.5,0-7.9,11.8,4,17C163.6,27.8,163.4,28.3,163.1,28.2Z" transform="translate(-1.5 -0.32)"/><path class="cls-2" d="M162.7,39.7c30.2-20.5,15.6-41.2,4.4-28.9-.2.3-.7,0-.5-.3,12.1-27.6,52.7,7.6-3.6,29.9C162.6,40.4,162.4,39.9,162.7,39.7Z" transform="translate(-1.5 -0.32)"/><path class="cls-3" d="M159.2,10.6a13.8,13.8,0,0,1,5.1,1.1c.3.1.6-.3.3-.5-3.7-3.6-7.4-5.3-10.5-5.5-5.8,6.5-3.3,14.4,5.6,20C151.3,20,151.7,10.6,159.2,10.6Z" transform="translate(-1.5 -0.32)"/><path class="cls-4" d="M151.5,5.7a8.17,8.17,0,0,0-7,7.4c2.1,7.9,9.9,13.2,18.9,14.9a.37.37,0,0,0-.2-.5,5.94,5.94,0,0,1-.8-.4C150.7,23.6,142.6,15.4,151.5,5.7Z" transform="translate(-1.5 -0.32)"/><path class="cls-5" d="M154.2,5.6a11.11,11.11,0,0,0-2.6.1c-9,9.6-.8,17.9,10.9,21.5a17.49,17.49,0,0,1-2.7-1.6h.1C150.9,20,148.3,12.2,154.2,5.6Z" transform="translate(-1.5 -0.32)"/><path class="cls-6" d="M163.1,28.2a.52.52,0,0,0,.4-.2c-9-1.7-16.8-7.1-18.9-14.9C144.1,18.6,149,25.6,163.1,28.2Z" transform="translate(-1.5 -0.32)"/><path class="cls-7" d="M173.6,7.1c8.7-.6,13.4,16-10.9,32.6a.34.34,0,0,0,.3.6,74.14,74.14,0,0,0,19.2-10.6c.4-.7.7-1.5,1.1-2.3C188.8,15.7,181.3,6.3,173.6,7.1Z" transform="translate(-1.5 -0.32)"/><path class="cls-8" d="M190.6,7c-8.5-10.9-21-2.6-24,3.8h0c.1.2.3.2.5,0a9.43,9.43,0,0,1,1-1c3.7-3.8,7.5-5.9,12-4.5C185,6.9,190,12.5,190.3,20,192.7,15,192.4,10.5,190.6,7Z" transform="translate(-1.5 -0.32)"/><path class="cls-9" d="M183.3,27.4c-.4.8-.7,1.5-1.1,2.3h0a31.57,31.57,0,0,0,8.2-9.7c-.3-7.5-5.2-13.1-10.2-14.7-4.5-1.4-8.3.7-12,4.5a8.74,8.74,0,0,1,5.5-2.6C181.3,6.3,188.8,15.7,183.3,27.4Z" transform="translate(-1.5 -0.32)"/><path class="cls-10" d="M166.6,10.4c-.1.1,0,.2,0,.3,3-6.4,15.5-14.7,24-3.8C186.1-1.4,172.7-3.5,166.6,10.4Z" transform="translate(-1.5 -0.32)"/><path class="cls-11" d="M1.6,62l1.3-1.5a4.67,4.67,0,0,0,2.9,1.2c.9,0,1.4-.4,1.4-.9h0c0-.6-.3-.8-2-1.3-2-.5-3.3-1.1-3.3-3h0c0-1.8,1.4-3,3.5-3a5.94,5.94,0,0,1,3.7,1.3L8,56.4a4.71,4.71,0,0,0-2.6-1c-.9,0-1.3.4-1.3.9h0c0,.6.4.9,2.1,1.3,2,.5,3.1,1.2,3.1,3h0c0,2-1.5,3.1-3.6,3.1A6.3,6.3,0,0,1,1.6,62Zm9.2-.7h0c0-1.7,1.3-2.4,3-2.4a4.5,4.5,0,0,1,1.8.3V59c0-.9-.5-1.4-1.6-1.4a7.12,7.12,0,0,0-2.1.4l-.5-1.6a6,6,0,0,1,2.9-.6,3.84,3.84,0,0,1,2.6.8,3.19,3.19,0,0,1,.8,2.4v4.4H15.6v-.8a2.78,2.78,0,0,1-2.3,1A2.31,2.31,0,0,1,10.8,61.3Zm4.9-.5v-.4a2.9,2.9,0,0,0-1.4-.3c-.9,0-1.5.4-1.5,1h0c0,.6.5.9,1.2.9A1.39,1.39,0,0,0,15.7,60.8Zm4,0V55.9h2.1v4.2c0,1,.5,1.5,1.3,1.5s1.3-.5,1.3-1.5V55.9h2.1v7.6H24.4V62.4a2.71,2.71,0,0,1-2.2,1.2A2.5,2.5,0,0,1,19.7,60.8Zm8.8-1.1h0c0-2.6,1.6-3.9,3.4-3.9a3.21,3.21,0,0,1,2.4,1.1V53.2h2.1V63.5H34.3V62.4a2.71,2.71,0,0,1-2.4,1.2C30.1,63.6,28.5,62.2,28.5,59.7Zm5.8,0h0a1.82,1.82,0,1,0-3.6,0h0a1.88,1.88,0,0,0,1.8,2.1A2,2,0,0,0,34.3,59.7Zm4.3-6.6h2.3V55H38.6Zm0,2.8h2.1v7.6H38.6Zm8.6,2.6h0a5.08,5.08,0,0,1,5.2-5.1,5.46,5.46,0,0,1,3.9,1.4l-1.4,1.7a3.8,3.8,0,0,0-2.6-1,2.93,2.93,0,0,0-2.8,3.1h0a2.91,2.91,0,0,0,3,3.1,3.17,3.17,0,0,0,2-.6V59.7H52.3V57.8h4.3V62a6.16,6.16,0,0,1-4.2,1.6A4.91,4.91,0,0,1,47.2,58.5Zm11.1,1.2h0a3.77,3.77,0,0,1,3.7-4c2.5,0,3.7,2,3.7,4.1v.6H60.4a1.73,1.73,0,0,0,1.8,1.5,2.3,2.3,0,0,0,1.8-.8l1.2,1.1a3.68,3.68,0,0,1-3.1,1.4A3.76,3.76,0,0,1,58.3,59.7Zm5.4-.6a1.6,1.6,0,0,0-3.2,0Zm3.9-3.2h2.1v1.5a2.41,2.41,0,0,1,2.4-1.7V58H72c-1.4,0-2.3.9-2.3,2.7v2.8H67.6Zm6.1,0h2.1V57A2.71,2.71,0,0,1,78,55.8,2.15,2.15,0,0,1,80.1,57a3.17,3.17,0,0,1,2.5-1.2,2.48,2.48,0,0,1,2.6,2.8v4.9H83V59.3c0-1-.5-1.5-1.3-1.5s-1.3.5-1.3,1.5v4.2H78.3V59.3c0-1-.5-1.5-1.3-1.5s-1.3.5-1.3,1.5v4.2H73.6V55.9Zm13.1,5.4h0c0-1.7,1.3-2.4,3-2.4a4.5,4.5,0,0,1,1.8.3V59c0-.9-.5-1.4-1.6-1.4a7.12,7.12,0,0,0-2.1.4l-.5-1.6a6,6,0,0,1,2.9-.6,3.84,3.84,0,0,1,2.6.8,3.19,3.19,0,0,1,.8,2.4v4.4H91.6v-.8a2.78,2.78,0,0,1-2.3,1A2.31,2.31,0,0,1,86.8,61.3Zm4.9-.5v-.4a2.9,2.9,0,0,0-1.4-.3c-.9,0-1.5.4-1.5,1h0c0,.6.5.9,1.2.9C91.1,62.1,91.7,61.5,91.7,60.8Zm4.1-4.9H98V57a2.71,2.71,0,0,1,2.2-1.2,2.52,2.52,0,0,1,2.6,2.8v4.9h-2.1V59.3c0-1-.5-1.5-1.3-1.5A1.26,1.26,0,0,0,98,59.2v4.2H95.9V55.9Zm13.9-2.3h1.1V58h5.7V53.6h1.1v9.9h-1.1V59h-5.7v4.4h-1.1Zm14,9.1a3.08,3.08,0,0,0,2.3-1l.7.6a3.76,3.76,0,0,1-3,1.4,3.58,3.58,0,0,1-3.6-3.8,3.62,3.62,0,0,1,3.5-3.8c2.2,0,3.4,1.7,3.4,3.9v.4h-5.8A2.37,2.37,0,0,0,123.7,62.7Zm2.1-3.3a2.44,2.44,0,0,0-2.3-2.5,2.52,2.52,0,0,0-2.4,2.5Zm2.7,1.9h0c0-1.6,1.3-2.4,3.1-2.4a6.87,6.87,0,0,1,2.2.3V59c0-1.3-.8-2-2.2-2a5.09,5.09,0,0,0-2.2.5l-.3-.9a5.67,5.67,0,0,1,2.7-.6,3.65,3.65,0,0,1,2.4.8,2.86,2.86,0,0,1,.8,2.1v4.5h-1.1V62.3a3.23,3.23,0,0,1-2.6,1.2C129.8,63.6,128.5,62.8,128.5,61.3Zm5.3-.5v-.7a5.84,5.84,0,0,0-2.1-.3c-1.4,0-2.1.6-2.1,1.5h0a1.62,1.62,0,0,0,1.8,1.5C132.7,62.7,133.8,61.9,133.8,60.8Zm3.7-7.7h1.1V63.4h-1.1Zm4.2,8.4V57.1h-1v-1h1V53.9h1.1v2.2h2.3v1h-2.3v4.3a1.06,1.06,0,0,0,1.2,1.2,2.28,2.28,0,0,0,1.1-.3v.9a2.77,2.77,0,0,1-1.3.3A1.78,1.78,0,0,1,141.7,61.5Zm5.5-8.4h1.1v4.3a2.7,2.7,0,0,1,2.5-1.4,2.65,2.65,0,0,1,2.8,2.9v4.5h-1.1V59.1c0-1.4-.7-2.2-2-2.2a2.13,2.13,0,0,0-2.2,2.3v4.2h-1.1ZM3.8,38.5a.76.76,0,0,0,.5-.2.72.72,0,0,0,0-1,.73.73,0,0,0-1,0,.73.73,0,0,0,0,1A.55.55,0,0,0,3.8,38.5Zm2.1,0a.7.7,0,1,0-.5-1.2.73.73,0,0,0,0,1C5.5,38.5,5.6,38.5,5.9,38.5Zm4.2,9a.68.68,0,1,0,.5.2C10.5,47.5,10.3,47.5,10.1,47.5Zm2,0a.68.68,0,1,0,.5.2C12.5,47.5,12.4,47.5,12.1,47.5Zm22.1-2.3H30.8a2.59,2.59,0,0,0,.7-1.1,5.85,5.85,0,0,0,.2-1.3,3.33,3.33,0,0,0-.7-2.3,2.63,2.63,0,0,0-2-.8,5,5,0,0,0-1.2.2,3,3,0,0,0-1.1.6,9,9,0,0,0-.9,1,3.1,3.1,0,0,0-.6,1.3h0a4.87,4.87,0,0,0,.1-1.2V39.9H24.1v3.4a3.08,3.08,0,0,1-.1,1,1.63,1.63,0,0,1-.3.6c-.2.1-.4.3-.6.3a2.22,2.22,0,0,1-.9.1H21a8.64,8.64,0,0,0,.1-1.5,8.81,8.81,0,0,0-.2-1.7,3.46,3.46,0,0,0-.7-1.2,4.11,4.11,0,0,0-1.3-.8,5.41,5.41,0,0,0-1.9-.3h-.9a2.2,2.2,0,0,0-.8.1v1c.3,0,.5-.1.7-.1h.8a5.21,5.21,0,0,1,1.4.2,1.46,1.46,0,0,1,.9.6,4.05,4.05,0,0,1,.5.9,5.28,5.28,0,0,1,.1,1.3v.7a1.7,1.7,0,0,1-.1.7H12.1V39.8H11v5.4H7.7V40.1a1.88,1.88,0,0,0-.8-.2c-.3-.1-.5-.1-.9-.2s-.7-.1-1.1-.1a3.34,3.34,0,0,0-1.5.3,4.13,4.13,0,0,0-1.1.7,2.38,2.38,0,0,0-.6,1.1,4.33,4.33,0,0,0,0,2.6,2.07,2.07,0,0,0,.6,1,2,2,0,0,0,1.1.6,7.93,7.93,0,0,0,1.7.2H22.2a2.81,2.81,0,0,0,1.5-.3,2,2,0,0,0,.8-.8,1.24,1.24,0,0,0,.6.8,2.13,2.13,0,0,0,1.2.3h9V36.5H34.1v8.7Zm-27.7,0H5.3a2.55,2.55,0,0,1-1.9-.6,2.35,2.35,0,0,1-.6-1.7,2.54,2.54,0,0,1,.5-1.6,2,2,0,0,1,1.5-.6h.7a4.33,4.33,0,0,1,.5.1c.2,0,.3.1.5.1Zm23.8-1.5a1.61,1.61,0,0,1-.4.7,1.79,1.79,0,0,1-.7.5,3.73,3.73,0,0,1-1.2.2H26.6a1.22,1.22,0,0,1-.9-.3.84.84,0,0,1-.2-.7c.1-.3.2-.6.3-1l.6-1.2a4.74,4.74,0,0,1,1-1,2,2,0,0,1,1.3-.4,1.49,1.49,0,0,1,1.3.6,2.54,2.54,0,0,1,.4,1.6A3.08,3.08,0,0,1,30.3,43.7ZM38,46.2h1.2V36.6H38Zm12,1.1a.6.6,0,0,0-.6.3,1,1,0,0,0,0,1.4.86.86,0,0,0,.6.3.6.6,0,0,0,.6-.3,1,1,0,0,0,0-1.4A.86.86,0,0,0,50,47.3Zm-2.3,0a.6.6,0,0,0-.6.3,1,1,0,0,0,0,1.4.86.86,0,0,0,.6.3,1,1,0,0,0,0-2ZM59,44.7H56.2V42.6a3.73,3.73,0,0,0-.2-1.2,1.93,1.93,0,0,0-.5-.9,1.7,1.7,0,0,0-1-.6,6.05,6.05,0,0,0-1.5-.2H52c-.3,0-.6.1-.9.1s-.6.1-.8.1v4.9h-.9a7,7,0,0,1-1.6-.2,2.34,2.34,0,0,1-1-.5,1.46,1.46,0,0,1-.6-.9,2.74,2.74,0,0,1-.2-1.3,5.28,5.28,0,0,1,.1-1.2c.1-.4.2-.8.3-1.1l-1.9.4a3,3,0,0,0-.2,1,4.48,4.48,0,0,0-.1,1.1,4.67,4.67,0,0,0,.3,1.7,5.67,5.67,0,0,0,.8,1.3,5.3,5.3,0,0,0,1.5.8,7.55,7.55,0,0,0,2.3.3H52V41.1h.9c.6,0,1,.1,1.2.4a2.42,2.42,0,0,1,.3,1.4v3.4h6.4V39.9H59Zm.9-7.9a1,1,0,1,0,.7.3A1.33,1.33,0,0,0,59.9,36.8Zm7.7,9.3a1.61,1.61,0,0,0,1.1-.3,1.39,1.39,0,0,0,.7-.8c.1.2.3.3.4.4a1.63,1.63,0,0,0,.6.3,1.88,1.88,0,0,0,.8.2,4.12,4.12,0,0,0,1.2.1h7.2V36.4H77.8v8.2H75.2v-2a3.51,3.51,0,0,0-.7-2.3,2.82,2.82,0,0,0-2.3-.8,3.34,3.34,0,0,0-1.5.3,3,3,0,0,0-1.8,1.8,5,5,0,0,0-.2,1.2,2.48,2.48,0,0,1-.1.9l-.3.6a2.19,2.19,0,0,1-.5.3,1.48,1.48,0,0,1-.7.1H64.8V36.5H63v9.6Zm5.9-1.4h-1a2.07,2.07,0,0,1-1.5-.5,2,2,0,0,1-.5-1.4,1.84,1.84,0,0,1,.4-1.3,1.66,1.66,0,0,1,1.2-.5,1.43,1.43,0,0,1,1.1.5,2.08,2.08,0,0,1,.4,1.5v1.7Zm10.8-9.6h-.8c-.4,0-.6,0-.7-.1a.52.52,0,0,1-.2-.4c0-.1.1-.2.2-.3a.75.75,0,0,1,.5-.1h.6l.2-1h-.8a2.22,2.22,0,0,0-.9.1,3.33,3.33,0,0,0-.6.3.55.55,0,0,0-.3.5,1.27,1.27,0,0,0-.1.6.37.37,0,0,0,.1.3.22.22,0,0,0,.2.2H81v1h3.5V35.1Zm1.9,9.6H82v1.4h6V36.8H86.2Zm-1-1-2-6.9-1.8.2,1.9,6.7Zm5.1,2.5h1.8V36.6H90.3Zm12.4,1.1a.6.6,0,0,0-.6.3,1,1,0,0,0,0,1.4.86.86,0,0,0,.6.3.71.71,0,0,0,.6-.3,1,1,0,0,0,0-1.4A.86.86,0,0,0,102.7,47.3Zm5.5-6.9a1.7,1.7,0,0,0-1-.6,6.05,6.05,0,0,0-1.5-.2h-1c-.3,0-.6.1-.9.1s-.6.1-.8.1v4.9h-.9a7,7,0,0,1-1.6-.2,2.34,2.34,0,0,1-1-.5,1.46,1.46,0,0,1-.6-.9,5,5,0,0,1-.2-1.2,5.28,5.28,0,0,1,.1-1.2c.1-.4.2-.8.3-1.1l-1.8.4a3,3,0,0,0-.2,1,4.48,4.48,0,0,0-.1,1.1,4.67,4.67,0,0,0,.3,1.7,5.67,5.67,0,0,0,.8,1.3,5.3,5.3,0,0,0,1.5.8,7.55,7.55,0,0,0,2.3.3h2.8V41.1h.9c.6,0,1,.1,1.2.4a2.42,2.42,0,0,1,.3,1.4v1.7h1.7V42.7a3.73,3.73,0,0,0-.2-1.2A1.82,1.82,0,0,0,108.2,40.4Zm-7.8,6.9a.6.6,0,0,0-.6.3,1,1,0,0,0,0,1.4.86.86,0,0,0,.6.3,1,1,0,0,0,0-2ZM115,41.4a5.26,5.26,0,0,0-1.4-1.2,10.84,10.84,0,0,0-1.9-.8l-.4,1.5a4.57,4.57,0,0,1,2.4,1.3,3.74,3.74,0,0,1,.8,2.5h-4v1.4h5.8v-.9A7.32,7.32,0,0,0,116,43,8.64,8.64,0,0,0,115,41.4Zm32.7,3.3h-2.8V42.9a13.4,13.4,0,0,0-.1-2l-.3-1.8-1.7.2c.1.5.2,1.1.3,1.7a12.1,12.1,0,0,1,.1,1.9v.8a2.77,2.77,0,0,1-.1.9h-1.2a.76.76,0,0,1-.5-.2,1.38,1.38,0,0,1-.3-.4c0-.2-.1-.4-.1-.7V39.9h-1.7V43a2.42,2.42,0,0,1-.3,1.4,1.23,1.23,0,0,1-.8.4.75.75,0,0,1-.5-.1l-.3-.3a.75.75,0,0,1-.1-.5V40.6h-1.8v2.5a2,2,0,0,1-.1.8.76.76,0,0,1-.2.5,1.38,1.38,0,0,1-.4.3c-.2,0-.3.1-.6.1H133a2,2,0,0,1-.8-.1c-.2-.1-.5-.1-.7-.3a3.54,3.54,0,0,0,1-1.2,3.19,3.19,0,0,0,.3-1.4,1.88,1.88,0,0,0-.2-.8,1.79,1.79,0,0,0-.5-.7,1.93,1.93,0,0,0-.9-.5,5.07,5.07,0,0,0-1.3-.2,3.4,3.4,0,0,0-1,.1c-.4.1-.7.2-1,.3a4.67,4.67,0,0,0-1,.5l-.9.6-.1,1.3a6.89,6.89,0,0,1,.8.3,3,3,0,0,1,.7.5c.2.2.5.4.7.6l.6.6c-.4.1-.9.2-1.4.3a9.72,9.72,0,0,1-1.8.1H124V40.1a1.88,1.88,0,0,0-.8-.2c-.3-.1-.6-.1-.9-.2s-.7-.1-1.1-.1a3.81,3.81,0,0,0-1.6.3,2.26,2.26,0,0,0-1.1.8,4.13,4.13,0,0,0-.7,1.1,4.33,4.33,0,0,0,0,2.6,2.07,2.07,0,0,0,.6,1,2.38,2.38,0,0,0,1.1.6,7.93,7.93,0,0,0,1.7.2h1.1v.2a1.68,1.68,0,0,1-.6,1.4,2.86,2.86,0,0,1-1.7.4h-.8a1.48,1.48,0,0,1-.7-.1c-.2,0-.5-.1-.7-.1l-.1,1.5c.2,0,.4.1.7.1a2,2,0,0,1,.7.1h.8a5,5,0,0,0,1.9-.3,4,4,0,0,0,1.3-.7,2.59,2.59,0,0,0,.7-1.1,3,3,0,0,0,.2-1.3h1.5a19.48,19.48,0,0,0,2.5-.2,11.69,11.69,0,0,0,2-.6l1.2.6a3.9,3.9,0,0,0,1.6.2h1.5a3.73,3.73,0,0,0,1.2-.2,1.34,1.34,0,0,0,.6-.7,1.34,1.34,0,0,0,.7.8,2,2,0,0,0,1.1.3,2.5,2.5,0,0,0,1.3-.3,1.58,1.58,0,0,0,.7-.7,1.76,1.76,0,0,0,.4.5,2.19,2.19,0,0,0,.5.3,1.48,1.48,0,0,0,.7.1h7.9V36.8h-1.8v7.9Zm-25.4,0h-.9a2.54,2.54,0,0,1-1.6-.5,2,2,0,0,1-.5-1.4,1.84,1.84,0,0,1,.4-1.3,1.66,1.66,0,0,1,1.2-.5h.5c.2,0,.3.1.4.1s.3.1.4.1v3.5Zm8.6-1.9a1.34,1.34,0,0,1-.6.7c-.2-.2-.4-.3-.6-.5a2.65,2.65,0,0,0-.6-.5c-.2-.2-.4-.3-.6-.5a4.35,4.35,0,0,0-.7-.4c.1-.1.3-.2.4-.3s.3-.2.5-.3.4-.1.6-.2a1.27,1.27,0,0,1,.6-.1,1.49,1.49,0,0,1,1,.3,1.14,1.14,0,0,1,.3.8A4.05,4.05,0,0,1,130.9,42.8Zm20.9-6.2v9.6h1.8V36.6Z" transform="translate(-1.5 -0.32)"/><polygon class="cls-12" points="94.11 70.53 93.72 70.2 93.34 69.86 93.03 70.23 92.71 70.61 93.09 70.92 93.47 71.24 93.79 70.89 94.11 70.53"/><polygon class="cls-12" points="96.25 77.3 96.6 77.6 96.95 77.89 97.25 77.56 97.55 77.23 97.19 76.92 96.84 76.61 96.54 76.95 96.25 77.3"/><polygon class="cls-12" points="97.67 77.27 98.03 77.56 98.38 77.86 98.68 77.53 98.98 77.2 98.62 76.89 98.26 76.58 97.97 76.92 97.67 77.27"/><path class="cls-12" d="M103.78,68.53c0,.94,0,1.75,0,2.45s0,1.27,0,1.73,0,.72,0,1,0,.63-.06.91a3.79,3.79,0,0,1-.62.12,5.12,5.12,0,0,1-.69,0h-.15a4.69,4.69,0,0,1-.88-.07,2.31,2.31,0,0,1-.67-.2,4.16,4.16,0,0,0,.08-.43,4.68,4.68,0,0,0,0-.55V72.22l-.47,0-.46,0v1.37a1.52,1.52,0,0,1-.08.51.88.88,0,0,1-.24.36,1,1,0,0,1-.48.22,4.68,4.68,0,0,1-.83.07H98a4.69,4.69,0,0,1-.88-.07,2.4,2.4,0,0,1-.67-.2,4.16,4.16,0,0,0,.08-.43,4.68,4.68,0,0,0,0-.55V72.22l-.47,0-.46,0v1.37a1.52,1.52,0,0,1-.08.51.88.88,0,0,1-.24.36,1,1,0,0,1-.48.22,4.68,4.68,0,0,1-.83.07h-.29a1.82,1.82,0,0,1-.61-.09,1,1,0,0,1-.42-.27,1.35,1.35,0,0,1-.24-.48,3.1,3.1,0,0,1-.08-.74V68.45l-.49,0-.49,0v4.89a4.35,4.35,0,0,0,.12,1.08,2,2,0,0,0,.35.78,1.3,1.3,0,0,0,.64.47,2.63,2.63,0,0,0,1,.16h.59a4,4,0,0,0,1.11-.13,2,2,0,0,0,.77-.39,2.6,2.6,0,0,0,.82.39,4.07,4.07,0,0,0,1.09.13h.45a4,4,0,0,0,1.11-.13,2,2,0,0,0,.77-.39,2.5,2.5,0,0,0,.82.39,4.07,4.07,0,0,0,1.09.13h.28l.59,0a4.69,4.69,0,0,0,.6-.1,4.45,4.45,0,0,0,.53-.14,2.31,2.31,0,0,0,.41-.17c0-.18.09-.36.13-.55s0-.38.07-.59,0-.46,0-.77,0-.68,0-1.1,0-1,0-1.64,0-1.46,0-2.37l-.49,0Z" transform="translate(-1.5 -0.32)"/><path class="cls-12" d="M111,71A5.2,5.2,0,0,0,110,72.26a2.72,2.72,0,0,0-.35,1.32,1.72,1.72,0,0,0,.1.6,2.07,2.07,0,0,0,.32.55l-.57.07-.62,0h-.27a1.8,1.8,0,0,1-.6-.09,1,1,0,0,1-.42-.27,1.09,1.09,0,0,1-.24-.48,3.1,3.1,0,0,1-.08-.74V68.45l-.49,0-.49,0v4.89a4.92,4.92,0,0,0,.11,1.08,2.34,2.34,0,0,0,.35.78,1.39,1.39,0,0,0,.64.47,2.72,2.72,0,0,0,1,.16h.56a6.64,6.64,0,0,0,1.13-.09,4.4,4.4,0,0,0,1-.28,5,5,0,0,0,.66.32,6.28,6.28,0,0,0,.73.25,5.33,5.33,0,0,0,.71.15,3.66,3.66,0,0,0,.64,0,1.06,1.06,0,0,0,.9-.38,1.89,1.89,0,0,0,.3-1.16,2.73,2.73,0,0,0-.28-1.22,3.66,3.66,0,0,0-.83-1.11,5.75,5.75,0,0,0-1.26-.9A6.93,6.93,0,0,0,111,71Zm.11,3.54a1.84,1.84,0,0,1-.55-.52,1,1,0,0,1-.18-.57,1.48,1.48,0,0,1,.18-.69,2.87,2.87,0,0,1,.53-.7,1.92,1.92,0,0,1,.82.51,1.19,1.19,0,0,1,.27.78.8.8,0,0,1-.06.3,1.75,1.75,0,0,1-.21.32,1.6,1.6,0,0,1-.33.3A2.63,2.63,0,0,1,111.15,74.49Zm2.89.77a.32.32,0,0,1-.14.08.66.66,0,0,1-.21,0,3.41,3.41,0,0,1-.8-.11,5.15,5.15,0,0,1-.92-.33,2.8,2.8,0,0,0,.74-.82,1.86,1.86,0,0,0,.25-.91c0-.07,0-.13,0-.19s0-.13,0-.19a3.85,3.85,0,0,1,.9,1,2.2,2.2,0,0,1,.31,1.09.48.48,0,0,1,0,.18A.32.32,0,0,1,114,75.26Z" transform="translate(-1.5 -0.32)"/><path class="cls-12" d="M118,68.12l-.58.1-.25,0a.79.79,0,0,1-.28,0,.72.72,0,0,1-.21-.12.68.68,0,0,1-.13-.18.54.54,0,0,1,0-.22.53.53,0,0,1,0-.18.49.49,0,0,1,.11-.14.51.51,0,0,1,.18-.09.66.66,0,0,1,.21,0l.28,0,.3.08.09-.23.1-.24a1.93,1.93,0,0,0-.4-.15,1.84,1.84,0,0,0-.41,0,1.05,1.05,0,0,0-.4.07.8.8,0,0,0-.32.19.73.73,0,0,0-.22.3,1.07,1.07,0,0,0-.07.41,1,1,0,0,0,.11.49,1,1,0,0,0,.33.35l-.27.1-.42.17.08.24.08.25c.39-.14.76-.27,1.13-.37s.73-.19,1.08-.25l0-.26Z" transform="translate(-1.5 -0.32)"/><path class="cls-12" d="M119.19,71.73a5.7,5.7,0,0,1,1.09.48,4.69,4.69,0,0,1,.86.64,3.5,3.5,0,0,1,.6.77,2.29,2.29,0,0,1,.29.83,9.29,9.29,0,0,1-1.36.28,14.26,14.26,0,0,1-1.67.09h-.34a1.87,1.87,0,0,1-.61-.09,1,1,0,0,1-.42-.27,1.09,1.09,0,0,1-.24-.48,3.1,3.1,0,0,1-.08-.74V69.53l-.49,0-.48,0v3.8a4.43,4.43,0,0,0,.12,1.09,2.17,2.17,0,0,0,.37.78,1.48,1.48,0,0,0,.68.47,3.24,3.24,0,0,0,1,.15h.49a12.57,12.57,0,0,0,2.25-.17,5.13,5.13,0,0,0,1.59-.51,2.61,2.61,0,0,0,0-.31c0-.1,0-.22,0-.34a3.34,3.34,0,0,0-.18-1.1,3.25,3.25,0,0,0-.54-1,4.48,4.48,0,0,0-.9-.83,6.3,6.3,0,0,0-1.24-.66,10.33,10.33,0,0,1,1.65-.94,11,11,0,0,1,1.83-.66v-1a13.48,13.48,0,0,0-2.33.87,11.68,11.68,0,0,0-2,1.24v1.25Z" transform="translate(-1.5 -0.32)"/><path class="cls-12" d="M133.72,71.73a5.34,5.34,0,0,1,1.08.48,4.45,4.45,0,0,1,.87.64,3.5,3.5,0,0,1,.6.77,2.73,2.73,0,0,1,.29.83,9.44,9.44,0,0,1-1.37.28,14.09,14.09,0,0,1-1.66.09h-.45a1.93,1.93,0,0,1-.45,0,.62.62,0,0,1-.29-.15.87.87,0,0,1-.2-.3,2.49,2.49,0,0,1-.15-.5,5.15,5.15,0,0,0-.27-.95,2.85,2.85,0,0,0-.4-.69,1.41,1.41,0,0,0-.53-.41,1.8,1.8,0,0,0-.71-.14,2,2,0,0,0-.86.18,2.1,2.1,0,0,0-.7.54,3.48,3.48,0,0,0-.53.86,5.58,5.58,0,0,0-.34,1.15,1.13,1.13,0,0,0-.43.11.88.88,0,0,0-.31.27,1.21,1.21,0,0,0-.18.38,1.73,1.73,0,0,0-.06.47c0,.19,0,.51,0,1s0,1,.08,1.77l.46,0,.46,0c0-.72-.06-1.29-.08-1.7s0-.68,0-.78a.45.45,0,0,1,.09-.3.37.37,0,0,1,.27-.09H128l.19.06.31.07.41.08.47.06.5,0a6.18,6.18,0,0,0,.89-.07,4.57,4.57,0,0,0,.77-.2,1.12,1.12,0,0,0,.56.38,2.91,2.91,0,0,0,.91.12h.53a12.42,12.42,0,0,0,2.25-.17,5.19,5.19,0,0,0,1.6-.51,2.61,2.61,0,0,0,0-.31c0-.1,0-.22,0-.34a3.34,3.34,0,0,0-.18-1.1,3.08,3.08,0,0,0-.55-1,4,4,0,0,0-.9-.83,5.94,5.94,0,0,0-1.23-.66,10.33,10.33,0,0,1,1.65-.94,11,11,0,0,1,1.83-.66v-1a13.18,13.18,0,0,0-2.33.87,11.68,11.68,0,0,0-2,1.24v1.25Zm-3.66,3a4.78,4.78,0,0,1-.73-.06,7.5,7.5,0,0,1-.84-.15,3.7,3.7,0,0,1,.61-1.39,1.13,1.13,0,0,1,.89-.47.95.95,0,0,1,.83.46,2.57,2.57,0,0,1,.24.57,6.2,6.2,0,0,1,.18.81h0v0h0l-.61.12C130.44,74.67,130.25,74.69,130.06,74.69Z" transform="translate(-1.5 -0.32)"/><path class="cls-12" d="M146.33,74.09c-.56.17-1,.29-1.35.38a3.81,3.81,0,0,1-.72.12.91.91,0,0,1-.41-.1,1.46,1.46,0,0,1-.7-.74,1.53,1.53,0,0,1-.1-.54,1.06,1.06,0,0,1,.09-.45,1,1,0,0,1,.26-.36,1.29,1.29,0,0,1,.39-.23,1.41,1.41,0,0,1,.47-.07,2.74,2.74,0,0,1,.62.07,4.63,4.63,0,0,1,.7.22l.14-.42.14-.42a5.23,5.23,0,0,0-.91-.32,3.27,3.27,0,0,0-.86-.11,2.22,2.22,0,0,0-.79.13,1.91,1.91,0,0,0-.63.41,1.73,1.73,0,0,0-.42.65,2.47,2.47,0,0,0-.14.84,1.93,1.93,0,0,0,.21.9,2,2,0,0,0,.6.72l-.6,0h-1a1.82,1.82,0,0,1-.61-.09,1,1,0,0,1-.42-.27A1.35,1.35,0,0,1,140,74a3.1,3.1,0,0,1-.08-.74V68.45l-.49,0-.49,0v4.89a4.35,4.35,0,0,0,.12,1.08,2,2,0,0,0,.35.78,1.3,1.3,0,0,0,.64.47,2.63,2.63,0,0,0,1,.16h.48c.46,0,.89,0,1.31,0a10.55,10.55,0,0,0,1.18-.15c.38-.07.77-.16,1.19-.27s.87-.26,1.34-.42l-.11-.47Z" transform="translate(-1.5 -0.32)"/><path class="cls-12" d="M152.41,72.11a8.32,8.32,0,0,1,.29,2.21v.14s0,.07,0,.1a2.91,2.91,0,0,1-.72.19,5,5,0,0,1-.9.07h-.32a1.62,1.62,0,0,1-.9-.22,1.25,1.25,0,0,1-.5-.66,5.72,5.72,0,0,1-.2-.58c-.08-.29-.18-.66-.3-1.12l-.45.14-.44.13c.14.55.24,1,.31,1.4a5.57,5.57,0,0,1,.11.92,3.7,3.7,0,0,1,0,.59,3.05,3.05,0,0,1-.14.54,2,2,0,0,1-.26.48,2.6,2.6,0,0,1-.41.4,2,2,0,0,1-.53.26,2.22,2.22,0,0,1-.65.09h-.29l-.27,0-.05.46,0,.46.44.07.42,0a2.68,2.68,0,0,0,1-.19,2.24,2.24,0,0,0,.81-.55,2.92,2.92,0,0,0,.55-.88,4.31,4.31,0,0,0,.27-1.15,1.58,1.58,0,0,0,.6.4,2.37,2.37,0,0,0,.83.13h.42a5.18,5.18,0,0,0,1.28-.14,3.77,3.77,0,0,0,1-.41,4,4,0,0,0,.14-.66c0-.24,0-.5,0-.79a8.68,8.68,0,0,0-.06-1,9,9,0,0,0-.19-1l-.45.11Z" transform="translate(-1.5 -0.32)"/><polygon class="cls-12" points="151.12 70.39 150.74 70.05 150.35 69.72 150.04 70.09 149.72 70.46 150.1 70.78 150.48 71.1 150.8 70.74 151.12 70.39"/><path class="cls-12" d="M5.13,75.37a2.66,2.66,0,0,1-1-.18,1.77,1.77,0,0,1-.73-.56,2.6,2.6,0,0,1-.44-.88,4.71,4.71,0,0,1-.14-1.18,5,5,0,0,1,.14-1.21,2.64,2.64,0,0,1,.42-.93,1.74,1.74,0,0,1,.72-.6,2.47,2.47,0,0,1,1-.2,3.11,3.11,0,0,1,.69.09,7.84,7.84,0,0,1,.86.25l.13-.48L6.91,69A6.74,6.74,0,0,0,6,68.73a4.76,4.76,0,0,0-.91-.09,3.79,3.79,0,0,0-1.48.27,2.71,2.71,0,0,0-1.08.81A3.49,3.49,0,0,0,1.87,71a5.36,5.36,0,0,0-.22,1.61,5,5,0,0,0,.22,1.56,3.36,3.36,0,0,0,.67,1.2,2.86,2.86,0,0,0,1.08.77,4,4,0,0,0,1.47.25,4.49,4.49,0,0,0,1-.1A4.27,4.27,0,0,0,7,75.94l-.11-.49L6.75,75a4.43,4.43,0,0,1-.81.3A3.21,3.21,0,0,1,5.13,75.37Z" transform="translate(-1.5 -0.32)"/><path class="cls-12" d="M10,70.7a5.67,5.67,0,0,0-.94.08A4,4,0,0,0,8.2,71l.11.43.1.43a3.92,3.92,0,0,1,.69-.2,4.56,4.56,0,0,1,.75-.06,1.37,1.37,0,0,1,.94.28,1.17,1.17,0,0,1,.31.87v.45a4.85,4.85,0,0,0-.55-.09,5.54,5.54,0,0,0-.59,0,3.2,3.2,0,0,0-.85.1,2,2,0,0,0-.67.33A1.34,1.34,0,0,0,8,74a1.76,1.76,0,0,0-.14.71A1.59,1.59,0,0,0,8,75.4a1.65,1.65,0,0,0,.41.51,1.84,1.84,0,0,0,.67.34,3.44,3.44,0,0,0,.89.11,5.73,5.73,0,0,0,1.22-.12,3.69,3.69,0,0,0,1-.37V72.81a2.74,2.74,0,0,0-.14-.9,1.78,1.78,0,0,0-.42-.67,1.68,1.68,0,0,0-.69-.4A2.78,2.78,0,0,0,10,70.7Zm1.15,4.63a1.83,1.83,0,0,1-.45.17,3.51,3.51,0,0,1-.59,0,1.41,1.41,0,0,1-.84-.21.75.75,0,0,1-.28-.64A.77.77,0,0,1,9.23,74a1.38,1.38,0,0,1,.86-.23,4.19,4.19,0,0,1,.5,0l.51.1v1.4Z" transform="translate(-1.5 -0.32)"/><path class="cls-12" d="M13.8,71.21v5h1.08V71.88a2.27,2.27,0,0,1,.57-.2,2.87,2.87,0,0,1,.67-.07h.29l.25.06.07-.45.08-.46-.36,0-.4,0a5.34,5.34,0,0,0-1.23.13A3.77,3.77,0,0,0,13.8,71.21Z" transform="translate(-1.5 -0.32)"/><path class="cls-12" d="M18.37,68.59a.79.79,0,0,0-.28,0,.74.74,0,0,0-.21.13.6.6,0,0,0-.14.21.71.71,0,0,0,0,.26.76.76,0,0,0,0,.27.54.54,0,0,0,.34.34.88.88,0,0,0,.29,0,.76.76,0,0,0,.27,0,.44.44,0,0,0,.21-.13A.6.6,0,0,0,19,69.5a.77.77,0,0,0,0-.27A.71.71,0,0,0,19,69a.6.6,0,0,0-.14-.21.54.54,0,0,0-.21-.13A.77.77,0,0,0,18.37,68.59Z" transform="translate(-1.5 -0.32)"/><polygon class="cls-12" points="16.33 75.92 16.87 75.92 17.41 75.92 17.41 73.21 17.41 70.51 16.87 70.51 16.33 70.51 16.33 73.21 16.33 75.92"/><path class="cls-12" d="M22.93,70.7a6,6,0,0,0-1.21.12,5.48,5.48,0,0,0-1.12.38v5h1.08V71.88a2.57,2.57,0,0,1,.59-.2,2.84,2.84,0,0,1,.66-.07,1.23,1.23,0,0,1,.91.3,1.27,1.27,0,0,1,.3.92v3.4h1.08V72.76a2.56,2.56,0,0,0-.14-.87,1.65,1.65,0,0,0-.45-.65,1.84,1.84,0,0,0-.71-.41A3.35,3.35,0,0,0,22.93,70.7Z" transform="translate(-1.5 -0.32)"/><path class="cls-12" d="M27.26,71.45a2.41,2.41,0,0,0-.56.87,3.41,3.41,0,0,0-.18,1.14,3.21,3.21,0,0,0,.16,1.07,2.17,2.17,0,0,0,.5.81,2.26,2.26,0,0,0,.79.5A3.06,3.06,0,0,0,29,76a2.43,2.43,0,0,0,.61-.07,2.09,2.09,0,0,0,.56-.21v.45a1.22,1.22,0,0,1-.09.49.93.93,0,0,1-.28.37,1.34,1.34,0,0,1-.46.24,2.35,2.35,0,0,1-.62.07,4.93,4.93,0,0,1-.78-.06,4.25,4.25,0,0,1-.72-.2l-.11.43L27,78a4.31,4.31,0,0,0,.84.23,4.77,4.77,0,0,0,.94.08,3.56,3.56,0,0,0,1-.14,2.23,2.23,0,0,0,.79-.43A1.89,1.89,0,0,0,31.1,77a2.45,2.45,0,0,0,.16-.93v-5a3.8,3.8,0,0,0-1-.32,5,5,0,0,0-1-.11,3.06,3.06,0,0,0-1.12.19A2.4,2.4,0,0,0,27.26,71.45Zm2.92,3.37a1.52,1.52,0,0,1-.47.2,2,2,0,0,1-.55.07,1.84,1.84,0,0,1-.65-.11,1.3,1.3,0,0,1-.49-.35,1.57,1.57,0,0,1-.3-.54,2.26,2.26,0,0,1-.1-.71,2.13,2.13,0,0,1,.11-.74,1.51,1.51,0,0,1,.33-.56,1.43,1.43,0,0,1,.52-.36,2.06,2.06,0,0,1,.68-.11,2.38,2.38,0,0,1,.46,0,2.64,2.64,0,0,1,.46.13v3Z" transform="translate(-1.5 -0.32)"/><path class="cls-12" d="M37.13,75.46a.7.7,0,0,1-.3-.06.55.55,0,0,1-.2-.17.82.82,0,0,1-.11-.3,1.76,1.76,0,0,1,0-.42v-6l-.54,0-.54,0v5.94a2.16,2.16,0,0,0,.38,1.38,1.37,1.37,0,0,0,1.14.46,1.67,1.67,0,0,0,.31,0l.3,0,0-.43-.05-.44-.14,0Z" transform="translate(-1.5 -0.32)"/><path class="cls-12" d="M39.18,68.59a.79.79,0,0,0-.28,0,.8.8,0,0,0-.22.13.57.57,0,0,0-.13.21.71.71,0,0,0,0,.26.76.76,0,0,0,0,.27.54.54,0,0,0,.34.34.84.84,0,0,0,.29,0,.76.76,0,0,0,.27,0,.54.54,0,0,0,.34-.34.76.76,0,0,0,.05-.27.71.71,0,0,0-.05-.26.57.57,0,0,0-.13-.21.74.74,0,0,0-.21-.13A.77.77,0,0,0,39.18,68.59Z" transform="translate(-1.5 -0.32)"/><polygon class="cls-12" points="37.14 75.92 37.68 75.92 38.22 75.92 38.22 73.21 38.22 70.51 37.68 70.51 37.14 70.51 37.14 73.21 37.14 75.92"/><path class="cls-12" d="M45.7,70.83H44.63a3.46,3.46,0,0,1-.24.81,3,3,0,0,1-.41.69,3.94,3.94,0,0,1-.61.62,8.93,8.93,0,0,1-.85.59v-5l-.54,0-.54,0v7.65h1.08V74.59L43,74.3l.46-.31.72,1.12.73,1.12H46.1l-.93-1.43-.94-1.42a4.8,4.8,0,0,0,1-1.22A3.15,3.15,0,0,0,45.7,70.83Z" transform="translate(-1.5 -0.32)"/><path class="cls-12" d="M49.17,70.7a2.52,2.52,0,0,0-1.05.2,2.2,2.2,0,0,0-.81.58,2.73,2.73,0,0,0-.52.91,3.41,3.41,0,0,0-.17,1.14,3.32,3.32,0,0,0,.19,1.18,2.38,2.38,0,0,0,1.47,1.46,3.25,3.25,0,0,0,1.16.19,5.1,5.1,0,0,0,1-.09,4.12,4.12,0,0,0,.86-.28l-.09-.44-.09-.44a3.92,3.92,0,0,1-.78.25,3.44,3.44,0,0,1-.78.08A1.81,1.81,0,0,1,48.26,75a1.86,1.86,0,0,1-.53-1.25h3.65l0-.38c0-.12,0-.23,0-.33a2.83,2.83,0,0,0-.15-.95,2,2,0,0,0-.46-.76,2,2,0,0,0-.71-.5A2.45,2.45,0,0,0,49.17,70.7Zm1.19,2.39H47.74a1.94,1.94,0,0,1,.15-.63,1.66,1.66,0,0,1,.29-.48,1.32,1.32,0,0,1,.44-.3,1.58,1.58,0,0,1,.55-.1,1.38,1.38,0,0,1,.52.1,1,1,0,0,1,.38.28,1.35,1.35,0,0,1,.22.43,1.78,1.78,0,0,1,.08.53V73S50.36,73.07,50.36,73.09Z" transform="translate(-1.5 -0.32)"/><path class="cls-12" d="M55.86,69a1.82,1.82,0,0,0-.32.62,2.58,2.58,0,0,0-.11.82v.44h-.77v.87h.77v4.53h1.08V71.7h1.37v-.87H56.51v-.46a1.23,1.23,0,0,1,.21-.78.74.74,0,0,1,.62-.26l.24,0,.37.06L58,69l.09-.42a3.64,3.64,0,0,0-.52-.1l-.44,0a2,2,0,0,0-.77.13A1.42,1.42,0,0,0,55.86,69Z" transform="translate(-1.5 -0.32)"/><path class="cls-12" d="M60.29,70.7a5.58,5.58,0,0,0-.94.08,4,4,0,0,0-.81.23l.11.43.1.43a3.92,3.92,0,0,1,.69-.2,4.56,4.56,0,0,1,.75-.06,1.33,1.33,0,0,1,.93.28,1.13,1.13,0,0,1,.32.87v.45a4.85,4.85,0,0,0-.55-.09,5.54,5.54,0,0,0-.59,0,3.2,3.2,0,0,0-.85.1,2.15,2.15,0,0,0-.68.33,1.4,1.4,0,0,0-.43.51,1.76,1.76,0,0,0-.14.71,1.59,1.59,0,0,0,.13.66,1.52,1.52,0,0,0,.41.51,1.77,1.77,0,0,0,.67.34,3.38,3.38,0,0,0,.89.11,5.57,5.57,0,0,0,1.21-.12,3.63,3.63,0,0,0,1-.37V72.81a2.74,2.74,0,0,0-.14-.9,1.91,1.91,0,0,0-.42-.67,1.82,1.82,0,0,0-.69-.4A2.78,2.78,0,0,0,60.29,70.7Zm1.15,4.63a1.83,1.83,0,0,1-.45.17,3.51,3.51,0,0,1-.59,0,1.39,1.39,0,0,1-.84-.21.75.75,0,0,1-.28-.64.77.77,0,0,1,.29-.67,1.38,1.38,0,0,1,.86-.23,4.19,4.19,0,0,1,.5,0l.51.1v1.4Z" transform="translate(-1.5 -0.32)"/><path class="cls-12" d="M69.76,70.7a3.59,3.59,0,0,0-.93.12,3.88,3.88,0,0,0-.9.37,1.94,1.94,0,0,0-.66-.37,3,3,0,0,0-.87-.12,5.69,5.69,0,0,0-1.18.12,5.39,5.39,0,0,0-1.11.38v5h1.08V71.88a2.2,2.2,0,0,1,.56-.2,2.37,2.37,0,0,1,.61-.07,1.14,1.14,0,0,1,.86.3,1.32,1.32,0,0,1,.29.92v3.4h1.06V73a3,3,0,0,0,0-.53,1.89,1.89,0,0,0-.1-.44,2,2,0,0,1,.6-.28,2.54,2.54,0,0,1,.68-.09,1.19,1.19,0,0,1,.88.3,1.32,1.32,0,0,1,.29.92v3.4H72V72.76a2.6,2.6,0,0,0-.14-.87,1.92,1.92,0,0,0-.42-.65,1.82,1.82,0,0,0-.69-.4A2.79,2.79,0,0,0,69.76,70.7Z" transform="translate(-1.5 -0.32)"/><path class="cls-12" d="M74.14,68.59a.82.82,0,0,0-.28,0,.74.74,0,0,0-.21.13.6.6,0,0,0-.14.21.71.71,0,0,0,0,.26.77.77,0,0,0,0,.27.54.54,0,0,0,.34.34.88.88,0,0,0,.29,0,.87.87,0,0,0,.28,0,.57.57,0,0,0,.21-.13.74.74,0,0,0,.13-.21.77.77,0,0,0,0-.27.71.71,0,0,0,0-.26.54.54,0,0,0-.34-.34A.86.86,0,0,0,74.14,68.59Z" transform="translate(-1.5 -0.32)"/><polygon class="cls-12" points="72.1 75.92 72.64 75.92 73.18 75.92 73.18 73.21 73.18 70.51 72.64 70.51 72.1 70.51 72.1 73.21 72.1 75.92"/><path class="cls-12" d="M78.08,75.46a.73.73,0,0,1-.3-.06.55.55,0,0,1-.2-.17.82.82,0,0,1-.11-.3,1.76,1.76,0,0,1,0-.42v-6l-.54,0-.54,0v5.94a2.16,2.16,0,0,0,.38,1.38,1.39,1.39,0,0,0,1.14.46,1.62,1.62,0,0,0,.31,0l.3,0,0-.43,0-.44-.14,0Z" transform="translate(-1.5 -0.32)"/><path class="cls-12" d="M82.53,70.83c0,.43-.09.84-.16,1.22a9.2,9.2,0,0,1-.25,1.06c-.1.33-.22.67-.35,1s-.3.7-.48,1.06c-.2-.34-.38-.68-.55-1s-.3-.68-.43-1A8.22,8.22,0,0,1,80,72a11,11,0,0,1-.18-1.21H78.74A10.4,10.4,0,0,0,79,72.26a8.43,8.43,0,0,0,.39,1.29A9.75,9.75,0,0,0,80,74.78,10.47,10.47,0,0,0,80.73,76a2.79,2.79,0,0,1-.77.83,2.87,2.87,0,0,1-1.06.44l.09.46.09.47a3.63,3.63,0,0,0,1.56-.74,5.41,5.41,0,0,0,1.25-1.53A14.83,14.83,0,0,0,83,73.37a11.74,11.74,0,0,0,.57-2.54H82.53Z" transform="translate(-1.5 -0.32)"/></svg>